<?xml version="1.0" standalone="no"?>
<!DOCTYPE svg PUBLIC "-//W3C//DTD SVG 20010904//EN"
 "http://www.w3.org/TR/2001/REC-SVG-20010904/DTD/svg10.dtd">
<svg version="1.0" xmlns="http://www.w3.org/2000/svg"
 width="835.000000pt" height="835.000000pt" viewBox="0 0 835.000000 835.000000"
 preserveAspectRatio="xMidYMid meet">
<metadata>
Created by potrace 1.14, written by Peter Selinger 2001-2017
</metadata>
<g transform="translate(0.000000,835.000000) scale(0.100000,-0.100000)"
fill="#000000" stroke="none">
<path d="M4018 8125 c-2 -1 -46 -5 -98 -9 -151 -10 -200 -15 -335 -37 -344
-54 -710 -162 -1010 -299 -67 -30 -256 -124 -293 -145 -9 -5 -49 -28 -87 -49
-39 -22 -81 -47 -95 -56 -14 -10 -59 -39 -100 -66 -159 -104 -375 -275 -522
-413 -277 -261 -482 -514 -703 -866 -48 -77 -190 -355 -246 -480 -68 -154
-188 -515 -204 -614 -3 -19 -8 -37 -10 -41 -2 -3 -6 -17 -9 -31 -21 -102 -38
-189 -42 -219 -3 -19 -9 -60 -14 -90 -13 -80 -25 -187 -35 -320 -7 -80 -7
-486 -1 -520 2 -14 7 -63 11 -110 12 -158 37 -321 70 -466 8 -34 16 -73 19
-87 11 -60 69 -262 106 -372 440 -1275 1474 -2237 2775 -2580 72 -19 146 -37
165 -40 19 -3 42 -8 50 -10 21 -6 111 -22 230 -40 297 -45 736 -51 1025 -14
44 5 98 12 120 15 22 3 47 7 55 9 8 2 31 6 50 9 393 62 873 228 1227 425 135
75 168 95 267 159 295 190 604 458 824 710 31 37 65 76 76 87 10 11 62 79 116
150 224 298 385 580 519 913 51 128 131 360 146 425 3 12 18 76 34 142 17 66
32 133 35 150 3 16 11 68 20 115 8 47 17 108 20 135 4 28 8 64 10 82 28 227
29 665 1 898 -7 60 -19 150 -20 155 -2 7 -15 88 -21 123 -55 349 -241 870
-431 1207 -193 343 -400 617 -668 886 -250 251 -488 438 -785 616 -133 80
-343 188 -450 232 -36 15 -74 31 -85 36 -139 64 -496 174 -695 214 -14 3 -36
7 -50 10 -13 3 -40 8 -60 11 -20 3 -45 7 -55 9 -11 2 -42 7 -70 10 -27 4 -61
9 -75 11 -24 4 -99 12 -185 21 -47 5 -513 13 -517 9z"/>
</g>
</svg>
